<svg xmlns="http://www.w3.org/2000/svg" xmlns:xlink="http://www.w3.org/1999/xlink" viewBox="0 0 73.46 73.46">
  <defs>
    <radialGradient id="a" cx="-216.85" cy="-164.18" r="1.04" fx="-216.85" fy="-164.18" gradientTransform="matrix(38.86 0 0 -38.86 8464.08 -6356.96)" gradientUnits="userSpaceOnUse">
      <stop offset="0" stop-color="#f9ddbd"/>
      <stop offset=".36" stop-color="#f9ddbd"/>
      <stop offset=".88" stop-color="#edc390"/>
      <stop offset="1" stop-color="#edc390"/>
    </radialGradient>
    <radialGradient xlink:href="#a" id="b" cx="-216.85" cy="-164.2" r="1" fx="-216.85" fy="-164.2"/>
  </defs>
  <path fill="url(#a)" stroke="#1d1d1b" stroke-miterlimit="10" stroke-width=".75" d="M34.94 62.78c-5.23-.1-8.93-1.38-11.31-3.9-2.58-2.74-3.63-6.86-3.38-13.38-.08-3.92-.34-17.15-.33-20.58a3.77 3.77 0 0 1 1.05-2.76 3.38 3.38 0 0 1 2.4-1.06c1.17 0 2.19.66 2.82 1.83.33.37.49 1 .58 2.1v-.86c0-2.23 0-4.15.08-5.13-.08-1.98 1-4.23 3.2-4.51l.38-.02c1.05 0 1.91.34 2.55 1a5 5 0 0 1 1.18 2.88 35.25 35.25 0 0 1 .34-5.03 3.51 3.51 0 0 1 3.38-2.69 3.63 3.63 0 0 1 3.58 3.18c.12 1.31.17 3.23.21 5.46.11-.87.48-1.68 1.08-2.32a3.7 3.7 0 0 1 2.67-1.2c1.36 0 2.96.86 3.4 3.29.26 3.62.26 9.4.26 14.04 0 2.42 0 4.51.04 5.62l-.01.17c-.03.17 0 .33.08.42.06.07.15.11.26.11a.6.6 0 0 0 .22-.04c1.01-.46 1.77-1.59 2.57-2.79 1.11-1.65 2.36-3.53 4.75-3.71a7 7 0 0 1 .97-.07c1.76 0 3.03.66 3.48 1.81.6 2.08-1.04 3.49-2.36 4.62-.46.39-.89.76-1.17 1.1-1.53 1.68-2.64 4.31-3.62 6.64a75.9 75.9 0 0 1-.98 2.26C50 58.45 46.58 62.61 35.14 62.77h-.17Z"/>
  <path fill="url(#b)" stroke="#1d1d1b" stroke-miterlimit="10" stroke-width=".75" d="M34.91 61.95c-10.33 0-13.1-5.51-13.6-10.13-.24-2.18-.55-26.48-.55-26.73 0-1.2.31-3.24 2.36-3.24 1.93 0 2.79 1.63 2.79 3.24l.2 10.05c0 .35.29.71.65.71s.64-.36.65-.72l.26-16.54c0-1.63.87-3.27 2.79-3.27s2.79 1.62 2.79 3.24l.21 16.4c0 .35.29.64.65.64s.64-.29.65-.64l.25-20.2c0-1.62.87-3.25 2.79-3.25s2.79 1.63 2.79 3.24l.26 20.09c0 .35.29.64.65.64s.64-.29.65-.64l.2-14.99c0-1.62.87-3.25 2.79-3.25s2.79 1.63 2.79 3.24c.05 5.37.16 19.4.15 19.9-.03.4.11.66.24.8.17.19.42.3.71.3.62 0 1.24-.49 1.41-.64.77-.67 1.43-1.71 2.13-2.81.87-1.38 1.78-2.8 2.75-3.2a7.04 7.04 0 0 1 2.6-.48c1.47 0 2.39.43 2.55.86.67 1.86-.14 2.57-2.2 4.15l-.4.31c-2.05 1.58-3.37 4.79-4.55 7.63-.48 1.15-.93 2.25-1.4 3.17-.28.55-.52 1.21-.8 1.96-1.5 4.05-3.77 10.16-16.22 10.16Z"/>
  <path fill="#e6b77d" d="M61.09 34.36c-.31-.85-1.65-1.28-3.16-1.28-.95 0-1.97.17-2.84.53-1.99.81-3.39 4.67-5.06 6.12-.31.27-.72.49-.99.49-.2 0-.33-.12-.3-.41.03-.3-.15-19.93-.15-19.93 0-2.15-1.3-3.89-3.44-3.89s-3.44 1.74-3.44 3.89l-.2 14.99-.26-20.09c0-2.15-1.3-3.89-3.44-3.89s-3.44 1.74-3.44 3.89l-.25 20.2-.21-16.4c0-2.15-1.3-3.89-3.44-3.89s-3.44 1.74-3.44 3.89l-.26 16.5-.2-9.96c0-2.15-1.31-3.89-3.44-3.89s-3.01 1.74-3.01 3.89c0 0 .31 24.56.55 26.79.4 3.68 2.48 10.7 14.25 10.7 15.18 0 15.85-9.02 17.61-12.47 1.64-3.21 3.07-8.49 5.77-10.58 2.15-1.66 3.73-2.65 2.81-5.19Zm-3.21 3.85-.4.31c-2.18 1.68-3.55 4.98-4.75 7.89a42.09 42.09 0 0 1-1.38 3.12c-.3.59-.56 1.29-.83 2.03-.73 1.95-1.63 4.38-3.8 6.3-2.6 2.31-6.47 3.43-11.82 3.43s-12.09-1.66-12.96-9.55c-.19-1.78-.46-19.85-.54-26.65 0-1.72.66-2.6 1.8-2.6.99 0 2.23.68 2.23 2.6v.03l.11 9.93c.01.71.51 1.24 1.21 1.24.71 0 1.28-.54 1.29-1.25l.26-16.51c0-1.2.56-2.59 2.15-2.59s2.15 1.4 2.15 2.62l.19 16.4c.02.71.43 1.28 1.29 1.28s1.3-.57 1.31-1.28l.26-20.22c0-1.92 1.16-2.6 2.15-2.6s2.15.68 2.15 2.61l.26 20.16c0 .71.59 1.36 1.3 1.36s1.29-.65 1.3-1.36l.2-15.04c0-1.2.56-2.61 2.15-2.61s2.15 1.39 2.15 2.6c.06 7.61.16 19.1.15 19.84v.24c-3.67 2.15-5.98 6.14-7.47 11.2-.23.8.51 1.04.79.25a19.03 19.03 0 0 1 8.45-9.94 3.2 3.2 0 0 0 1.65-.78l.09-.09.13-.05-.05-.03a14.7 14.7 0 0 0 2.08-2.78c.78-1.23 1.67-2.63 2.45-2.94a6.6 6.6 0 0 1 2.36-.43c1.2 0 1.83.32 1.95.45.48 1.35.1 1.79-1.99 3.39Z"/>
</svg>
