<?xml version="1.0" encoding="UTF-8"?>
<svg id="Warstwa_1" xmlns="http://www.w3.org/2000/svg" version="1.1" viewBox="0 0 579 1167">
  <!-- Generator: Adobe Illustrator 29.1.0, SVG Export Plug-In . SVG Version: 2.1.0 Build 142)  -->
  <defs>
    <style>
      .st0 {
        fill: #ffc8c9;
      }

      .st1 {
        fill: #fff;
      }
    </style>
  </defs>
  <g id="XXX">
    <path class="st0" d="M69,1164.5c-36.7,0-66.5-30.7-66.5-68.5V125c0-37.8,29.8-68.5,66.5-68.5h383c36.7,0,66.5,30.7,66.5,68.5v971c0,37.8-29.8,68.5-66.5,68.5H69Z"/>
    <path d="M452,59c17,0,33,6.9,45.2,19.4,12.1,12.5,18.8,29.1,18.8,46.6v971c0,17.6-6.7,34.1-18.8,46.6-12.1,12.5-28.2,19.4-45.2,19.4H69c-17,0-33-6.9-45.2-19.4-12.1-12.5-18.8-29.1-18.8-46.6V125c0-17.6,6.7-34.1,18.8-46.6,12.1-12.5,28.2-19.4,45.2-19.4h383M452,54H69C31,54,0,86,0,125v971c0,39,31,71,69,71h383c38,0,69-32,69-71V125c0-39-31-71-69-71h0Z"/>
  </g>
  <g id="XXX1">
    <path class="st1" d="M98,1142.5c-39.4,0-71.5-33-71.5-73.5V98c0-40.5,32.1-73.5,71.5-73.5h383c39.4,0,71.5,33,71.5,73.5v971c0,40.5-32.1,73.5-71.5,73.5H98Z"/>
    <path d="M481,27c38,0,69,32,69,71v971c0,39-31,71-69,71H98c-38,0-69-32-69-71V98c0-39,31-71,69-71h383M481,22H98c-40.8,0-74,34.1-74,76v971c0,41.9,33.2,76,74,76h383c40.8,0,74-34.1,74-76V98c0-41.9-33.2-76-74-76h0Z"/>
  </g>
</svg>