<svg viewBox="0 0 433.68 417.04" xmlns="http://www.w3.org/2000/svg"><path d="m319.71 281.44c-6.36-1.65-12.81-2.97-19.29-4.05 7.19 32.88 16.61 66.18 35.04 94.66 8.56 12.38 18.43 24.26 31.49 32.08 8.48 5.39 17.88 9.74 28.09 10.02 5.83.36 11.75-.5 17.01-3.12 4.31-2.01 8.48-4.62 11.52-8.34 4.15-5.31 5.93-11.89 6.94-18.41 1.31-9.41-.86-18.89-4.72-27.46-10.38-23.41-29.61-42.04-51.86-54.29-17.15-9.12-35.47-16.05-54.22-21.08zm-14.16-281.13c.83-.7 2.19-.13 2.31.94 0 3.25-1.23 6.41-1.92 9.57-1.28 4.94-2.57 9.87-3.74 14.83-5.28 22.82-9.08 45.99-11.5 69.29-2.8 28.28-3.88 56.76-2.72 85.16 1.39 31.73 5.37 63.29 11.83 94.37 22.27 3.44 43.82 10.68 64.29 20 22.77 10.24 43.42 26.2 56.85 47.44 4.92 7.84 9.24 16.22 11.38 25.27 3.18 12.16.87 29.05-7.69 38.6-3.53 3.78-8.14 6.39-12.84 8.46-5.36 2.41-11.27 3.07-17.09 2.72-10.57-.33-20.36-4.77-29.15-10.37-13.33-7.96-23.51-20.06-32.24-32.7-19-29.14-28.54-63.27-35.86-96.96-25.2-3.77-50.86-5.01-76.22-2.34-26.39 3.03-52.16 10.16-77.43 18.16-28.32 9.34-56.23 19.79-82.9 33.12-18.79 9.46-36.66 20.5-53.92 32.48-1.14.79-2.27 1.58-3.4 2.37-.96.68-2.44-.36-2.11-1.51 14.84-11.72 31.8-21.43 48.38-30.75 34.39-18.33 71.18-31.85 108.41-43.12 19.25-5.51 38.73-10.54 58.62-13.07 26.55-3.28 53.52-2.16 79.95 1.73-6.57-31.74-10.52-64.05-11.78-96.44-1.04-28.51.2-57.09 3.08-85.46 2.74-24.63 6.84-49.14 12.79-73.2 1.32-5.71 3.26-11.32 4.13-17.12-.13-.52.05-1.12.48-1.47z"/><path d="m1.07 359.08c6.85-1.9 13.49-3.34 20.4-4.41 2.14-.33 4.29-.65 6.44-.9.41-.12.87-.07 1.22.2.88.63.74 2.04-.28 2.46-.47.17-.98.14-1.47.23-4.26.56-8.53 1.24-12.74 2.07-4.32.86-8.6 1.9-12.84 3.08-1.79.43-2.5-2.2-.72-2.72z"/><path d="m17.28 335.31c.61.47.72 1.36.26 1.97-.64 1.15-1.24 2.32-1.91 3.45-2.13 3.73-3.51 5.41-5.78 9.05-2.38 3.8-4.81 7.57-7.21 11.36-.96 1.57-3.34.24-2.45-1.39 4.23-6.66 7.68-11.28 11.66-18.1 1.01-1.73 2.01-3.46 2.95-5.22.38-1.02 1.43-1.89 2.47-1.12z"/></svg>