<svg xmlns="http://www.w3.org/2000/svg" viewBox="0 0 52 48">
  <defs>
    <radialGradient id="a" cx="-370.1" cy="-319.4" r="1" fx="-370.1" fy="-319.4" gradientTransform="matrix(25 0 0 -25 9143 -7846)" gradientUnits="userSpaceOnUse">
      <stop offset="0" stop-color="#fde02e"/>
      <stop offset=".5" stop-color="#fde02e"/>
      <stop offset=".9" stop-color="#f7c02b"/>
      <stop offset="1" stop-color="#f4a224"/>
    </radialGradient>
  </defs>
  <path fill="url(#a)" d="M26 48C14 48 1 41 1 24S14 0 26 0c7 0 13 2 17 6 5 5 8 11 8 18s-3 14-8 18c-4 4-11 6-17 6Z"/>
  <path fill="#eb8f02" d="M47 10c2 4 3 8 3 13 0 7-3 13-8 18-4 4-10 6-17 6-8 0-16-3-21-10 5 8 14 11 22 11 6 0 13-2 17-6 5-4 8-11 8-18 0-5-2-10-4-14Z"/>
  <path d="M26 38c-5 0-9-3-10-5v-1l1-1h1a28 28 0 0 0 16 0h1l1 1v1c-2 2-5 5-10 5Zm26-21-2 1c0 4 0 12-9 12-8 0-12-4-12-9-1-2-1-3-3-3s-2 1-3 3c0 5-4 9-12 9-9 0-9-8-9-12l-2-1v-4l9-1a99 99 0 0 1 17 1h5l12-1 9 1v4Z" class="cls-1"/>
  <path d="m7 19-1 2-1-1 1-4 3-1 1 1-1 2-2 1Zm28 0-1 2-2-1 1-4 3-1 1 1-1 2-1 1Z" class="cls-4"/>
</svg>
